<svg xmlns="http://www.w3.org/2000/svg" viewBox="0 0 1080 1080"><g data-name="Layer_1"><rect width="1080" height="1080" rx="50" ry="50" style="fill:#fff"/><path d="M293.86 932.1c-49.55 0-99.11-.38-148.65.14-30.62.32-63.94-22.19-68.59-58-5.15-39.64 20.93-67.26 53.81-74.66 5.44-1.23 10.97-1.24 16.53-1.24 92.34.04 184.67.24 277-.06 51.66-.17 102.46-7.09 151.86-22.61 37.51-11.79 72.39-29.06 102.85-54.05 41.24-33.83 70.18-75.74 80.81-128.96 13.71-68.64-.98-130.46-45.09-184.84-30.3-37.36-68.5-63.48-114.96-76.77-25.11-7.19-50.7-9.19-76.85-6.94-46.45 4.01-87.61 20.91-123.56 50.07-39.57 32.09-65.41 73.25-77.89 122.76-5.32 21.1-7.2 42.59-5.77 64.14 2.83 42.74 17.21 81.5 43.47 115.46 34.87 45.11 80.36 73.95 135.77 87.29 3.93.95 7.73 2.54 11.33 4.58 1.9 1.08 3.64 2.46 3.63 4.3 0 2.03-2.36 3.15-4.12 3.87-5.87 2.41-12.23 3.01-18.41 3.64-12.62 1.29-25.32 1.65-37.97 2.66-29.79 2.37-59.63 1.28-89.44 1.04-23.63-.19-47.26-1.47-70.89-2.27-3.76-.13-7.14-1.62-9.38-4.39-19.2-23.76-37.66-48.05-51.27-75.61-14.98-30.35-25.68-62.14-30.87-95.58-4.45-28.66-6.32-57.55-3.69-86.54 5.62-62.01 25.29-118.92 62.42-169.31 6.81-9.24 14.24-18.02 21.61-26.82 1.79-2.14 2.02-3.22-.07-5.22-19.79-19.02-38.48-39.14-58.74-57.7-14.99-13.73-25.71-30.27-25.17-51.43.7-27.61 23.86-54.88 52.11-60.23 18.78-3.56 34.31 2.12 47.66 15.64 25.02 25.33 49.53 51.19 75.44 75.64 1.95 1.84 3.12 2.99 6.22 1.25 29.47-16.51 61.24-26.48 94.29-32.93 27.52-5.37 55.31-8.09 83.25-6.87 52.05 2.29 101.8 14.17 148.01 38.93 4.33 2.32 7.29 2.56 11.23-.98 11.39-10.24 22.54-20.71 33.32-31.59 14.71-14.84 29.6-29.5 44.29-44.36 21.78-22.04 53.45-20.01 74.74-.03 14.31 13.43 22.29 29.9 21.78 49.87-.44 17.59-8.72 31.74-20.68 43.77-20.33 20.45-40.06 41.53-61.71 60.63-2.9 2.56-.97 3.78.49 5.51 19.14 22.67 35.69 47.05 48.76 73.72 13.49 27.52 22.66 56.41 28.56 86.52 5.3 27.04 7.4 54.31 5.55 81.58-3.91 57.57-17.54 112.48-48.56 162.11-20.01 32.02-41.96 62.46-70.74 87.29-42.77 36.9-90.1 66.22-143.51 85.33-31.23 11.17-63.37 18.43-96 24.03-36.05 6.19-72.35 8.3-108.85 8.24-41.79-.07-83.58-.02-125.37-.01Zm524.07 0c-39.99 0-79.97-.05-119.96.07-4.23.01-8.33-.7-12.24-1.77-5.51-1.51-9.95-4.94-11.09-11.02-1.26-6.71 1.01-12.31 6.92-15.75 12.67-7.39 25.65-14.24 38.27-21.71 26.63-15.76 51.08-34.44 73.33-55.96 5.7-5.52 10.77-11.69 16.34-17.35 6.81-6.92 15.21-10.25 24.95-10.25 35.01.01 70.03.29 105.04-.08 28.75-.3 54.97 20.54 61.96 47.51 10.42 40.2-11.49 74.55-48.94 84.36-4.74 1.24-9.61 2-14.61 1.99-39.99-.07-79.97-.04-119.96-.04Z" style="fill:#020202"/><path d="M540.43 600.18c-28.63 0-57.28-.41-85.9.11-30.19.55-43.75-23.73-43.73-44.32.01-12.37-1.66-24.87 3.31-36.96 6.85-16.69 20.44-26.33 38.46-26.33 57.27 0 114.54.48 171.81-.2 29.74-.35 45.58 22.25 45.38 45.97-.09 11.02 1.37 22.1-2.18 33.03-5.99 18.41-19.5 28.69-38.85 28.7-29.43.01-58.86 0-88.29 0Z" style="fill:#f7c21a"/></g></svg>